# xmcd
#
# Track frame offsets: 
#        150
#        14542
#        34783
#        47514
#        63478
#        82542
#        103518
#        129174
#        142488
#        153208
#        168105
#        183990
#
# Disc length: 2696 seconds
#
# Revision: 0
# Processed by: cddbd v1.5.2PL0 Copyright (c) Steve Scherf et al.
# Submitted via: ExactAudioCopyFreeDBPlugin 1.0
#
DISCID=8e0a860c
DTITLE=The Cox Family - Gone Like the Cotton
DYEAR=2015
DGENRE=Bluegrass
TTITLE0=Good Imitation of the Blues
TTITLE1=Lost Without Your Love
TTITLE2=Cash On the Barrelhead
TTITLE3=Desire
TTITLE4=In My Eyes
TTITLE5=Good News
TTITLE6=Let It Roll
TTITLE7=I’m Not So Far Away
TTITLE8=Honky Tonk Blues
TTITLE9=Too Far Gone
TTITLE10=I’ll Get Over You
TTITLE11=Gone Like the Cotton
EXTD=
EXTT0=
EXTT1=
EXTT2=
EXTT3=
EXTT4=
EXTT5=
EXTT6=
EXTT7=
EXTT8=
EXTT9=
EXTT10=
EXTT11=
PLAYORDER=
